name p7_grf_mean_speed_1.8
datacolumns 13
datarows 51
range 0.0000000000 0.5000000000
endheader
time	grf_x_l_mean	grf_x_l_var	grf_y_l_mean	grf_y_l_var	grf_z_l_mean	grf_z_l_var	grf_x_r_mean	grf_x_r_var	grf_y_r_mean	grf_y_r_var	grf_z_r_mean	grf_z_r_var
0.0000000000	135.4553915023	1.0000000000	568.8765953454	1.0000000000	0.0000000000	0.0000000000	10.7407548368	1.0000000000	11.5189510738	1.0000000000	0.0000000000	0.0000000000
0.0100000000	139.0788324942	1.0000000000	540.2484400582	1.0000000000	0.0000000000	0.0000000000	12.6867782042	1.0000000000	55.9680932605	1.0000000000	0.0000000000	0.0000000000
0.0200000000	139.0522166152	1.0000000000	498.9489432271	1.0000000000	0.0000000000	0.0000000000	10.0732927018	1.0000000000	129.6325809733	1.0000000000	0.0000000000	0.0000000000
0.0300000000	134.3742459223	1.0000000000	445.8124398975	1.0000000000	0.0000000000	0.0000000000	-2.0377940231	1.0000000000	230.6805592948	1.0000000000	0.0000000000	0.0000000000
0.0400000000	124.0818876952	1.0000000000	383.1028042501	1.0000000000	0.0000000000	0.0000000000	-27.8731544470	1.0000000000	345.6409844080	1.0000000000	0.0000000000	0.0000000000
0.0500000000	107.9828795274	1.0000000000	314.1161688083	1.0000000000	0.0000000000	0.0000000000	-62.9710371845	1.0000000000	454.6241698189	1.0000000000	0.0000000000	0.0000000000
0.0600000000	88.3193028570	1.0000000000	243.4328387287	1.0000000000	0.0000000000	0.0000000000	-94.9600305331	1.0000000000	540.0425337217	1.0000000000	0.0000000000	0.0000000000
0.0700000000	68.1295641310	1.0000000000	176.3393603466	1.0000000000	0.0000000000	0.0000000000	-116.8007795292	1.0000000000	592.7314808910	1.0000000000	0.0000000000	0.0000000000
0.0800000000	48.2030200768	1.0000000000	117.5455332166	1.0000000000	0.0000000000	0.0000000000	-130.1412093493	1.0000000000	616.6980476514	1.0000000000	0.0000000000	0.0000000000
0.0900000000	30.2674020612	1.0000000000	70.4010543513	1.0000000000	0.0000000000	0.0000000000	-137.2632749999	1.0000000000	624.5231538195	1.0000000000	0.0000000000	0.0000000000
0.1000000000	16.9519495695	1.0000000000	36.1748943890	1.0000000000	0.0000000000	0.0000000000	-139.8584698333	1.0000000000	627.4258031609	1.0000000000	0.0000000000	0.0000000000
0.1100000000	7.3650456921	1.0000000000	14.0231900645	1.0000000000	0.0000000000	0.0000000000	-139.7473318354	1.0000000000	630.2895813900	1.0000000000	0.0000000000	0.0000000000
0.1200000000	1.1019356725	1.0000000000	1.4972175958	1.0000000000	0.0000000000	0.0000000000	-137.9933615858	1.0000000000	633.4624922977	1.0000000000	0.0000000000	0.0000000000
0.1300000000	0.0000000000	1.0000000000	0.0000000000	1.0000000000	0.0000000000	0.0000000000	-133.1900392020	1.0000000000	636.0823569092	1.0000000000	0.0000000000	0.0000000000
0.1400000000	0.0000000000	1.0000000000	0.0000000000	1.0000000000	0.0000000000	0.0000000000	-124.7812731444	1.0000000000	636.5274281351	1.0000000000	0.0000000000	0.0000000000
0.1500000000	0.0000000000	1.0000000000	0.0000000000	1.0000000000	0.0000000000	0.0000000000	-114.2375045089	1.0000000000	631.8457244565	1.0000000000	0.0000000000	0.0000000000
0.1600000000	0.0000000000	1.0000000000	0.0000000000	1.0000000000	0.0000000000	0.0000000000	-101.6751231687	1.0000000000	619.4856372242	1.0000000000	0.0000000000	0.0000000000
0.1700000000	0.0000000000	1.0000000000	0.0000000000	1.0000000000	0.0000000000	0.0000000000	-87.1005962908	1.0000000000	598.7751995384	1.0000000000	0.0000000000	0.0000000000
0.1800000000	0.0000000000	1.0000000000	0.0000000000	1.0000000000	0.0000000000	0.0000000000	-72.5247576864	1.0000000000	570.4455686993	1.0000000000	0.0000000000	0.0000000000
0.1900000000	-0.1460947778	1.0000000000	0.2523944765	1.0000000000	0.0000000000	0.0000000000	-59.6270678774	1.0000000000	535.2379920724	1.0000000000	0.0000000000	0.0000000000
0.2000000000	0.2188617881	1.0000000000	0.5561131922	1.0000000000	0.0000000000	0.0000000000	-48.0563524329	1.0000000000	494.1417567216	1.0000000000	0.0000000000	0.0000000000
0.2100000000	0.6004712806	1.0000000000	0.4689666625	1.0000000000	0.0000000000	0.0000000000	-38.3106026317	1.0000000000	449.7330306967	1.0000000000	0.0000000000	0.0000000000
0.2200000000	0.2309098533	1.0000000000	0.1889550715	1.0000000000	0.0000000000	0.0000000000	-31.0559796278	1.0000000000	405.3995533788	1.0000000000	0.0000000000	0.0000000000
0.2300000000	0.0000000000	1.0000000000	0.0000000000	1.0000000000	0.0000000000	0.0000000000	-25.3375442577	1.0000000000	364.3640592788	1.0000000000	0.0000000000	0.0000000000
0.2400000000	0.0000000000	1.0000000000	0.0000000000	1.0000000000	0.0000000000	0.0000000000	-20.3286511229	1.0000000000	329.2779327815	1.0000000000	0.0000000000	0.0000000000
0.2500000000	0.6456437369	1.0000000000	0.0171576597	1.0000000000	0.0000000000	0.0000000000	-16.5266425948	1.0000000000	301.2325181084	1.0000000000	0.0000000000	0.0000000000
0.2600000000	0.3647357219	1.0000000000	0.0029574758	1.0000000000	0.0000000000	0.0000000000	-13.6710855613	1.0000000000	280.0370670639	1.0000000000	0.0000000000	0.0000000000
0.2700000000	0.0000000000	1.0000000000	0.0000000000	1.0000000000	0.0000000000	0.0000000000	-10.7327785169	1.0000000000	265.4933388244	1.0000000000	0.0000000000	0.0000000000
0.2800000000	0.3916478902	1.0000000000	0.0775441509	1.0000000000	0.0000000000	0.0000000000	-8.2544160060	1.0000000000	257.5657033350	1.0000000000	0.0000000000	0.0000000000
0.2900000000	-0.0237783651	1.0000000000	0.1792490732	1.0000000000	0.0000000000	0.0000000000	-6.6011550491	1.0000000000	255.2937956149	1.0000000000	0.0000000000	0.0000000000
0.3000000000	0.1455205376	1.0000000000	0.1595907264	1.0000000000	0.0000000000	0.0000000000	-5.0421106902	1.0000000000	256.8511337619	1.0000000000	0.0000000000	0.0000000000
0.3100000000	0.5033244967	1.0000000000	0.0568788200	1.0000000000	0.0000000000	0.0000000000	-3.2832701450	1.0000000000	261.0810235415	1.0000000000	0.0000000000	0.0000000000
0.3200000000	0.0000000000	1.0000000000	0.0000000000	1.0000000000	0.0000000000	0.0000000000	-1.6364298137	1.0000000000	267.8282150934	1.0000000000	0.0000000000	0.0000000000
0.3300000000	0.0000000000	1.0000000000	0.0000000000	1.0000000000	0.0000000000	0.0000000000	0.1590650312	1.0000000000	277.0759345352	1.0000000000	0.0000000000	0.0000000000
0.3400000000	-0.0207890734	1.0000000000	0.0565489664	1.0000000000	0.0000000000	0.0000000000	2.5260126380	1.0000000000	288.5184280319	1.0000000000	0.0000000000	0.0000000000
0.3500000000	-0.0090927060	1.0000000000	0.1773693846	1.0000000000	0.0000000000	0.0000000000	5.2013560090	1.0000000000	301.7022286397	1.0000000000	0.0000000000	0.0000000000
0.3600000000	-0.2450776355	1.0000000000	0.2936748943	1.0000000000	0.0000000000	0.0000000000	8.4429085238	1.0000000000	316.3957321867	1.0000000000	0.0000000000	0.0000000000
0.3700000000	-0.0622863243	1.0000000000	0.3150865946	1.0000000000	0.0000000000	0.0000000000	12.8203962727	1.0000000000	332.7945124340	1.0000000000	0.0000000000	0.0000000000
0.3800000000	0.1768257355	1.0000000000	0.3247687444	1.0000000000	0.0000000000	0.0000000000	18.1623253741	1.0000000000	351.3623034028	1.0000000000	0.0000000000	0.0000000000
0.3900000000	-0.0300221611	1.0000000000	0.4518955099	1.0000000000	0.0000000000	0.0000000000	24.3692918580	1.0000000000	372.4149405099	1.0000000000	0.0000000000	0.0000000000
0.4000000000	-0.2382819840	1.0000000000	0.6017213022	1.0000000000	0.0000000000	0.0000000000	32.0123129625	1.0000000000	395.8399537314	1.0000000000	0.0000000000	0.0000000000
0.4100000000	-0.2901141501	1.0000000000	0.6120768723	1.0000000000	0.0000000000	0.0000000000	41.1542786650	1.0000000000	421.2816012760	1.0000000000	0.0000000000	0.0000000000
0.4200000000	-0.5463166750	1.0000000000	0.3593119516	1.0000000000	0.0000000000	0.0000000000	51.3294643830	1.0000000000	448.2742353651	1.0000000000	0.0000000000	0.0000000000
0.4300000000	0.0000000000	1.0000000000	0.0000000000	1.0000000000	0.0000000000	0.0000000000	62.5568893541	1.0000000000	476.1311328464	1.0000000000	0.0000000000	0.0000000000
0.4400000000	0.0000000000	1.0000000000	0.0000000000	1.0000000000	0.0000000000	0.0000000000	74.7910763409	1.0000000000	503.8140528843	1.0000000000	0.0000000000	0.0000000000
0.4500000000	0.0000000000	1.0000000000	0.0000000000	1.0000000000	0.0000000000	0.0000000000	87.5356232760	1.0000000000	529.7503161934	1.0000000000	0.0000000000	0.0000000000
0.4600000000	0.0000000000	1.0000000000	0.0000000000	1.0000000000	0.0000000000	0.0000000000	100.5321492283	1.0000000000	551.9126797109	1.0000000000	0.0000000000	0.0000000000
0.4700000000	0.0000000000	1.0000000000	0.0000000000	1.0000000000	0.0000000000	0.0000000000	113.7318576273	1.0000000000	568.3838891731	1.0000000000	0.0000000000	0.0000000000
0.4800000000	0.0000000000	1.0000000000	0.0000000000	1.0000000000	0.0000000000	0.0000000000	126.5006486329	1.0000000000	577.7800421329	1.0000000000	0.0000000000	0.0000000000
0.4900000000	0.0000000000	1.0000000000	0.0000000000	1.0000000000	0.0000000000	0.0000000000	138.1110299833	1.0000000000	578.8212515315	1.0000000000	0.0000000000	0.0000000000
0.5000000000	8.2606307080	1.0000000000	3.2401631473	1.0000000000	0.0000000000	0.0000000000	148.2215460291	1.0000000000	569.6980873868	1.0000000000	0.0000000000	0.0000000000
